<svg id="Layer_1" data-name="Layer 1" xmlns="http://www.w3.org/2000/svg" viewBox="0 0 156.25 59.86"><defs><style>.cls-1{fill:#fff27b;stroke:#323232;stroke-miterlimit:10;stroke-width:0.5px;}</style></defs><path class="cls-1" d="M94.39,24.55h31V36.46a7.46,7.46,0,0,1-2.54,6,12.22,12.22,0,0,1-8.24,3.08c-2.46,0-4.85-1.33-4.85-4.37,0-3.36,2.27-5.82,6.45-5.82h5.23l.43-.47-2.77-5.55H96.35l-.59.74,2.7,5.51h5a6.4,6.4,0,0,0-.39,2.42c0,3.32,1.44,5.9,4,8.64,3.71,4,7.46,5.23,10.94,5.23a12,12,0,0,0,7.46-2.38l-.16,8.28,6.21,1.8.55-.39-.16-34.65h10.2l-.16,33.2,6.29,1.84.55-.39-.16-34.65h6.8l.55-.75-2.66-5.35H88A31.32,31.32,0,0,0,83.3,8.18C79.28,2.67,74.78.25,70.17.25c-5.31,0-9,3.13-9,7.7a10.79,10.79,0,0,0,2.58,6.87l5.9,2.58.58-.9A7.8,7.8,0,0,1,68,11.3c0-3,2.11-5.15,5.43-5.15,5.39,0,8,4.33,8.39,12.3H.84l-.55.75L3,24.55H26.74V30a40.18,40.18,0,0,0-9.85-1.45c-8.12,0-12,4.3-12,9.45,0,2.15.82,4.77,3.24,7.86,3.25,4.06,7,5.86,11.21,5.86a14.44,14.44,0,0,0,7.39-2l-.16,8.13,6.21,1.8.55-.39-.16-34.65H47.44A51.71,51.71,0,0,1,47.83,31a39.31,39.31,0,0,1-.27,5.27c-3.21.4-5.24.86-6.1,1.88a3.5,3.5,0,0,0-.82,2.3c0,1.61,1.21,3.48,3,5.4,2,2.14,3.67,3.24,4.92,3.24A4.18,4.18,0,0,0,52.05,47c1.41-2.46,2.07-6,2.07-12.15,0-2.85-.12-6.25-.47-10.27H65.06l-.16,33.2,6.29,1.84.55-.39-.16-34.65h10.2l-.16,33.2,6.29,1.84.55-.39L88.3,24.55ZM17.13,45.6c-4.06,0-6.06-2-6.06-4.14A6.26,6.26,0,0,1,14.43,36l6.25,9.18A13.1,13.1,0,0,1,17.13,45.6ZM26.82,39c0,1.84-.71,3.28-3,4.77l-6-9A20,20,0,0,1,21,34.51a26.81,26.81,0,0,1,5.86.62Z"/></svg>